{"accessors":[{"name":"Node-Mesh_positions","componentType":5126,"count":24140,"min":[-0.13119110465049744,-0.13045309484004974,-0.1418725997209549],"max":[0.15485799312591553,0.05303680896759033,0.30861160159111023],"type":"VEC3","bufferView":0,"byteOffset":0},{"name":"Node-Mesh_0_indices","componentType":5123,"count":1284,"min":[0],"max":[995],"type":"SCALAR","bufferView":1,"byteOffset":0},{"name":"Node-Mesh_1_indices","componentType":5123,"count":20136,"min":[996],"max":[20579],"type":"SCALAR","bufferView":1,"byteOffset":2568},{"name":"Node-Mesh_2_indices","componentType":5123,"count":540,"min":[20580],"max":[20939],"type":"SCALAR","bufferView":1,"byteOffset":42840},{"name":"Node-Mesh_3_indices","componentType":5123,"count":816,"min":[20940],"max":[21619],"type":"SCALAR","bufferView":1,"byteOffset":43920},{"name":"Node-Mesh_4_indices","componentType":5123,"count":2592,"min":[21620],"max":[23707],"type":"SCALAR","bufferView":1,"byteOffset":45552},{"name":"Node-Mesh_5_indices","componentType":5123,"count":240,"min":[23708],"max":[23947],"type":"SCALAR","bufferView":1,"byteOffset":50736},{"name":"Node-Mesh_6_indices","componentType":5123,"count":192,"min":[23948],"max":[24139],"type":"SCALAR","bufferView":1,"byteOffset":51216}],"asset":{"generator":"obj2gltf","version":"2.0"},"buffers":[{"name":"model","byteLength":341280,"uri":"data:application/octet-stream;base64,"}],"bufferViews":[{"name":"bufferView_0","buffer":0,"byteLength":289680,"byteOffset":0,"byteStride":12,"target":34962},{"name":"bufferView_1","buffer":0,"byteLength":51600,"byteOffset":289680,"target":34963}],"materials":[{"name":"mat17","pbrMetallicRoughness":{"baseColorFactor":[0.27,0.35,0.39,1],"metallicFactor":0,"roughnessFactor":1},"emissiveFactor":[0,0,0],"alphaMode":"OPAQUE","doubleSided":false},{"name":"mat9","pbrMetallicRoughness":{"baseColorFactor":[0.55,0.76,0.29,1],"metallicFactor":0,"roughnessFactor":1},"emissiveFactor":[0,0,0],"alphaMode":"OPAQUE","doubleSided":false},{"name":"mat8","pbrMetallicRoughness":{"baseColorFactor":[0.96,0.26,0.21,1],"metallicFactor":0,"roughnessFactor":1},"emissiveFactor":[0,0,0],"alphaMode":"OPAQUE","doubleSided":false},{"name":"mat21","pbrMetallicRoughness":{"baseColorFactor":[1,1,1,1],"metallicFactor":0,"roughnessFactor":1},"emissiveFactor":[0,0,0],"alphaMode":"OPAQUE","doubleSided":false},{"name":"mat10","pbrMetallicRoughness":{"baseColorFactor":[0.3,0.69,0.31,1],"metallicFactor":0,"roughnessFactor":1},"emissiveFactor":[0,0,0],"alphaMode":"OPAQUE","doubleSided":false},{"name":"mat19","pbrMetallicRoughness":{"baseColorFactor":[0.87,0.6,0.27,1],"metallicFactor":0,"roughnessFactor":1},"emissiveFactor":[0,0,0],"alphaMode":"OPAQUE","doubleSided":false},{"name":"mat18","pbrMetallicRoughness":{"baseColorFactor":[1,0.8,0.53,1],"metallicFactor":0,"roughnessFactor":1},"emissiveFactor":[0,0,0],"alphaMode":"OPAQUE","doubleSided":false}],"meshes":[{"name":"Node-Mesh","primitives":[{"attributes":{"POSITION":0},"indices":1,"material":0,"mode":4},{"attributes":{"POSITION":0},"indices":2,"material":1,"mode":4},{"attributes":{"POSITION":0},"indices":3,"material":2,"mode":4},{"attributes":{"POSITION":0},"indices":4,"material":3,"mode":4},{"attributes":{"POSITION":0},"indices":5,"material":4,"mode":4},{"attributes":{"POSITION":0},"indices":6,"material":5,"mode":4},{"attributes":{"POSITION":0},"indices":7,"material":6,"mode":4}]}],"nodes":[{"name":"Node","mesh":0}],"scene":0,"scenes":[{"nodes":[0]}]}
