{"accessors":[{"name":"Node-Mesh_positions","componentType":5126,"count":12100,"min":[-0.2226150929927826,-0.03300749883055687,-0.22696490585803986],"max":[0.2277684062719345,0.018678899854421616,0.22343289852142334],"type":"VEC3","bufferView":0,"byteOffset":0},{"name":"Node-Mesh_normals","componentType":5126,"count":12100,"min":[-0.9995716214179993,-1,-0.9993910193443298],"max":[0.9995716214179993,1,0.9993910193443298],"type":"VEC3","bufferView":0,"byteOffset":145200},{"name":"Node-Mesh_0_indices","componentType":5123,"count":312,"min":[0],"max":[263],"type":"SCALAR","bufferView":1,"byteOffset":0},{"name":"Node-Mesh_1_indices","componentType":5123,"count":30,"min":[264],"max":[279],"type":"SCALAR","bufferView":1,"byteOffset":624},{"name":"Node-Mesh_2_indices","componentType":5123,"count":1182,"min":[280],"max":[923],"type":"SCALAR","bufferView":1,"byteOffset":684},{"name":"Node-Mesh_3_indices","componentType":5123,"count":132,"min":[924],"max":[995],"type":"SCALAR","bufferView":1,"byteOffset":3048},{"name":"Node-Mesh_4_indices","componentType":5123,"count":1140,"min":[996],"max":[1755],"type":"SCALAR","bufferView":1,"byteOffset":3312},{"name":"Node-Mesh_5_indices","componentType":5123,"count":4032,"min":[1756],"max":[4611],"type":"SCALAR","bufferView":1,"byteOffset":5592},{"name":"Node-Mesh_6_indices","componentType":5123,"count":11232,"min":[4612],"max":[12099],"type":"SCALAR","bufferView":1,"byteOffset":13656}],"asset":{"generator":"obj2gltf","version":"2.0"},"buffers":[{"name":"model","byteLength":326520,"uri":"data:application/octet-stream;base64,"}],"bufferViews":[{"name":"bufferView_0","buffer":0,"byteLength":290400,"byteOffset":0,"byteStride":12,"target":34962},{"name":"bufferView_1","buffer":0,"byteLength":36120,"byteOffset":290400,"target":34963}],"materials":[{"name":"mat19","pbrMetallicRoughness":{"baseColorFactor":[0.87,0.6,0.27,1],"metallicFactor":0,"roughnessFactor":1},"emissiveFactor":[0,0,0],"alphaMode":"OPAQUE","doubleSided":false},{"name":"mat18","pbrMetallicRoughness":{"baseColorFactor":[1,0.8,0.53,1],"metallicFactor":0,"roughnessFactor":1},"emissiveFactor":[0,0,0],"alphaMode":"OPAQUE","doubleSided":false},{"name":"mat8","pbrMetallicRoughness":{"baseColorFactor":[0.96,0.26,0.21,1],"metallicFactor":0,"roughnessFactor":1},"emissiveFactor":[0,0,0],"alphaMode":"OPAQUE","doubleSided":false},{"name":"mat21","pbrMetallicRoughness":{"baseColorFactor":[1,1,1,1],"metallicFactor":0,"roughnessFactor":1},"emissiveFactor":[0,0,0],"alphaMode":"OPAQUE","doubleSided":false},{"name":"mat9","pbrMetallicRoughness":{"baseColorFactor":[0.55,0.76,0.29,1],"metallicFactor":0,"roughnessFactor":1},"emissiveFactor":[0,0,0],"alphaMode":"OPAQUE","doubleSided":false},{"name":"mat20","pbrMetallicRoughness":{"baseColorFactor":[0.47,0.33,0.28,1],"metallicFactor":0,"roughnessFactor":1},"emissiveFactor":[0,0,0],"alphaMode":"OPAQUE","doubleSided":false},{"name":"mat23","pbrMetallicRoughness":{"baseColorFactor":[0.1,0.1,0.1,1],"metallicFactor":0,"roughnessFactor":1},"emissiveFactor":[0,0,0],"alphaMode":"OPAQUE","doubleSided":false}],"meshes":[{"name":"Node-Mesh","primitives":[{"attributes":{"POSITION":0,"NORMAL":1},"indices":2,"material":0,"mode":4},{"attributes":{"POSITION":0,"NORMAL":1},"indices":3,"material":1,"mode":4},{"attributes":{"POSITION":0,"NORMAL":1},"indices":4,"material":2,"mode":4},{"attributes":{"POSITION":0,"NORMAL":1},"indices":5,"material":3,"mode":4},{"attributes":{"POSITION":0,"NORMAL":1},"indices":6,"material":4,"mode":4},{"attributes":{"POSITION":0,"NORMAL":1},"indices":7,"material":5,"mode":4},{"attributes":{"POSITION":0,"NORMAL":1},"indices":8,"material":6,"mode":4}]}],"nodes":[{"name":"Node","mesh":0}],"scene":0,"scenes":[{"nodes":[0]}]}
