{"accessors":[{"name":"Node-Mesh_positions","componentType":5126,"count":17558,"min":[-1.4056930541992188,-0.6593490839004517,-1.5657819509506226],"max":[0.704312801361084,1.0606509447097778,1.6342209577560425],"type":"VEC3","bufferView":0,"byteOffset":0},{"name":"Node-Mesh_normals","componentType":5126,"count":17558,"min":[-1,-1,-1],"max":[1,1,1],"type":"VEC3","bufferView":0,"byteOffset":210696},{"name":"Node-Mesh_0_indices","componentType":5123,"count":1188,"min":[0],"max":[809],"type":"SCALAR","bufferView":1,"byteOffset":0},{"name":"Node-Mesh_1_indices","componentType":5123,"count":5580,"min":[810],"max":[4707],"type":"SCALAR","bufferView":1,"byteOffset":2376},{"name":"Node-Mesh_2_indices","componentType":5123,"count":2658,"min":[4708],"max":[6355],"type":"SCALAR","bufferView":1,"byteOffset":13536},{"name":"Node-Mesh_3_indices","componentType":5123,"count":1980,"min":[6356],"max":[7675],"type":"SCALAR","bufferView":1,"byteOffset":18852},{"name":"Node-Mesh_4_indices","componentType":5123,"count":5226,"min":[7676],"max":[10645],"type":"SCALAR","bufferView":1,"byteOffset":22812},{"name":"Node-Mesh_5_indices","componentType":5123,"count":972,"min":[10646],"max":[11293],"type":"SCALAR","bufferView":1,"byteOffset":33264},{"name":"Node-Mesh_6_indices","componentType":5123,"count":1152,"min":[11294],"max":[12061],"type":"SCALAR","bufferView":1,"byteOffset":35208},{"name":"Node-Mesh_7_indices","componentType":5123,"count":1008,"min":[12062],"max":[12733],"type":"SCALAR","bufferView":1,"byteOffset":37512},{"name":"Node-Mesh_8_indices","componentType":5123,"count":2880,"min":[12734],"max":[14593],"type":"SCALAR","bufferView":1,"byteOffset":39528},{"name":"Node-Mesh_9_indices","componentType":5123,"count":240,"min":[14594],"max":[14749],"type":"SCALAR","bufferView":1,"byteOffset":45288},{"name":"Node-Mesh_10_indices","componentType":5123,"count":672,"min":[14750],"max":[15193],"type":"SCALAR","bufferView":1,"byteOffset":45768},{"name":"Node-Mesh_11_indices","componentType":5123,"count":252,"min":[15194],"max":[15361],"type":"SCALAR","bufferView":1,"byteOffset":47112},{"name":"Node-Mesh_12_indices","componentType":5123,"count":402,"min":[15362],"max":[15629],"type":"SCALAR","bufferView":1,"byteOffset":47616},{"name":"Node-Mesh_13_indices","componentType":5123,"count":468,"min":[15630],"max":[15941],"type":"SCALAR","bufferView":1,"byteOffset":48420},{"name":"Node-Mesh_14_indices","componentType":5123,"count":504,"min":[15942],"max":[16277],"type":"SCALAR","bufferView":1,"byteOffset":49356},{"name":"Node-Mesh_15_indices","componentType":5123,"count":540,"min":[16278],"max":[16637],"type":"SCALAR","bufferView":1,"byteOffset":50364},{"name":"Node-Mesh_16_indices","componentType":5123,"count":576,"min":[16638],"max":[17021],"type":"SCALAR","bufferView":1,"byteOffset":51444},{"name":"Node-Mesh_17_indices","componentType":5123,"count":684,"min":[17022],"max":[17477],"type":"SCALAR","bufferView":1,"byteOffset":52596},{"name":"Node-Mesh_18_indices","componentType":5123,"count":120,"min":[17478],"max":[17557],"type":"SCALAR","bufferView":1,"byteOffset":53964}],"asset":{"generator":"obj2gltf","version":"2.0"},"buffers":[{"name":"model","byteLength":475596,"uri":"data:application/octet-stream;base64,"}],"bufferViews":[{"name":"bufferView_0","buffer":0,"byteLength":421392,"byteOffset":0,"byteStride":12,"target":34962},{"name":"bufferView_1","buffer":0,"byteLength":54204,"byteOffset":421392,"target":34963}],"materials":[{"name":"mat21","pbrMetallicRoughness":{"baseColorFactor":[1,1,1,1],"metallicFactor":0,"roughnessFactor":1},"emissiveFactor":[0,0,0],"alphaMode":"OPAQUE","doubleSided":false},{"name":"mat17","pbrMetallicRoughness":{"baseColorFactor":[0.27,0.35,0.39,1],"metallicFactor":0,"roughnessFactor":1},"emissiveFactor":[0,0,0],"alphaMode":"OPAQUE","doubleSided":false},{"name":"mat8","pbrMetallicRoughness":{"baseColorFactor":[0.96,0.26,0.21,1],"metallicFactor":0,"roughnessFactor":1},"emissiveFactor":[0,0,0],"alphaMode":"OPAQUE","doubleSided":false},{"name":"mat20","pbrMetallicRoughness":{"baseColorFactor":[0.47,0.33,0.28,1],"metallicFactor":0,"roughnessFactor":1},"emissiveFactor":[0,0,0],"alphaMode":"OPAQUE","doubleSided":false},{"name":"mat15","pbrMetallicRoughness":{"baseColorFactor":[0.81,0.85,0.86,1],"metallicFactor":0,"roughnessFactor":1},"emissiveFactor":[0,0,0],"alphaMode":"OPAQUE","doubleSided":false},{"name":"mat22","pbrMetallicRoughness":{"baseColorFactor":[0.62,0.62,0.62,1],"metallicFactor":0,"roughnessFactor":1},"emissiveFactor":[0,0,0],"alphaMode":"OPAQUE","doubleSided":false},{"name":"mat18","pbrMetallicRoughness":{"baseColorFactor":[1,0.8,0.53,1],"metallicFactor":0,"roughnessFactor":1},"emissiveFactor":[0,0,0],"alphaMode":"OPAQUE","doubleSided":false},{"name":"mat19","pbrMetallicRoughness":{"baseColorFactor":[0.87,0.6,0.27,1],"metallicFactor":0,"roughnessFactor":1},"emissiveFactor":[0,0,0],"alphaMode":"OPAQUE","doubleSided":false},{"name":"mat9","pbrMetallicRoughness":{"baseColorFactor":[0.55,0.76,0.29,1],"metallicFactor":0,"roughnessFactor":1},"emissiveFactor":[0,0,0],"alphaMode":"OPAQUE","doubleSided":false},{"name":"mat4","pbrMetallicRoughness":{"baseColorFactor":[0,0.74,0.83,1],"metallicFactor":0,"roughnessFactor":1},"emissiveFactor":[0,0,0],"alphaMode":"OPAQUE","doubleSided":false},{"name":"mat24","pbrMetallicRoughness":{"baseColorFactor":[0.92,0.95,0.94,0.4],"metallicFactor":0,"roughnessFactor":0.7},"emissiveFactor":[0,0,0],"alphaMode":"BLEND","doubleSided":true},{"name":"mat3","pbrMetallicRoughness":{"baseColorFactor":[0.5,0.87,0.92,1],"metallicFactor":0,"roughnessFactor":1},"emissiveFactor":[0,0,0],"alphaMode":"OPAQUE","doubleSided":false},{"name":"mat5","pbrMetallicRoughness":{"baseColorFactor":[0.01,0.61,0.9,1],"metallicFactor":0,"roughnessFactor":1},"emissiveFactor":[0,0,0],"alphaMode":"OPAQUE","doubleSided":false},{"name":"mat11","pbrMetallicRoughness":{"baseColorFactor":[0,0.59,0.53,1],"metallicFactor":0,"roughnessFactor":1},"emissiveFactor":[0,0,0],"alphaMode":"OPAQUE","doubleSided":false},{"name":"mat10","pbrMetallicRoughness":{"baseColorFactor":[0.3,0.69,0.31,1],"metallicFactor":0,"roughnessFactor":1},"emissiveFactor":[0,0,0],"alphaMode":"OPAQUE","doubleSided":false},{"name":"mat12","pbrMetallicRoughness":{"baseColorFactor":[1,0.92,0.23,1],"metallicFactor":0,"roughnessFactor":1},"emissiveFactor":[0,0,0],"alphaMode":"OPAQUE","doubleSided":false},{"name":"mat13","pbrMetallicRoughness":{"baseColorFactor":[1,0.6,0,1],"metallicFactor":0,"roughnessFactor":1},"emissiveFactor":[0,0,0],"alphaMode":"OPAQUE","doubleSided":false},{"name":"mat14","pbrMetallicRoughness":{"baseColorFactor":[1,0.34,0.13,1],"metallicFactor":0,"roughnessFactor":1},"emissiveFactor":[0,0,0],"alphaMode":"OPAQUE","doubleSided":false},{"name":"mat16","pbrMetallicRoughness":{"baseColorFactor":[0.47,0.56,0.61,1],"metallicFactor":0,"roughnessFactor":1},"emissiveFactor":[0,0,0],"alphaMode":"OPAQUE","doubleSided":false}],"meshes":[{"name":"Node-Mesh","primitives":[{"attributes":{"POSITION":0,"NORMAL":1},"indices":2,"material":0,"mode":4},{"attributes":{"POSITION":0,"NORMAL":1},"indices":3,"material":1,"mode":4},{"attributes":{"POSITION":0,"NORMAL":1},"indices":4,"material":2,"mode":4},{"attributes":{"POSITION":0,"NORMAL":1},"indices":5,"material":3,"mode":4},{"attributes":{"POSITION":0,"NORMAL":1},"indices":6,"material":4,"mode":4},{"attributes":{"POSITION":0,"NORMAL":1},"indices":7,"material":5,"mode":4},{"attributes":{"POSITION":0,"NORMAL":1},"indices":8,"material":6,"mode":4},{"attributes":{"POSITION":0,"NORMAL":1},"indices":9,"material":7,"mode":4},{"attributes":{"POSITION":0,"NORMAL":1},"indices":10,"material":8,"mode":4},{"attributes":{"POSITION":0,"NORMAL":1},"indices":11,"material":9,"mode":4},{"attributes":{"POSITION":0,"NORMAL":1},"indices":12,"material":10,"mode":4},{"attributes":{"POSITION":0,"NORMAL":1},"indices":13,"material":11,"mode":4},{"attributes":{"POSITION":0,"NORMAL":1},"indices":14,"material":12,"mode":4},{"attributes":{"POSITION":0,"NORMAL":1},"indices":15,"material":13,"mode":4},{"attributes":{"POSITION":0,"NORMAL":1},"indices":16,"material":14,"mode":4},{"attributes":{"POSITION":0,"NORMAL":1},"indices":17,"material":15,"mode":4},{"attributes":{"POSITION":0,"NORMAL":1},"indices":18,"material":16,"mode":4},{"attributes":{"POSITION":0,"NORMAL":1},"indices":19,"material":17,"mode":4},{"attributes":{"POSITION":0,"NORMAL":1},"indices":20,"material":18,"mode":4}]}],"nodes":[{"name":"Node","mesh":0}],"scene":0,"scenes":[{"nodes":[0]}]}
